<?xml version="1.0" encoding="utf-8"?>
<!-- Generator: Adobe Illustrator 24.0.1, SVG Export Plug-In . SVG Version: 6.00 Build 0)  -->
<svg version="1.1" id="Layer_1" xmlns="http://www.w3.org/2000/svg" xmlns:xlink="http://www.w3.org/1999/xlink" x="0px" y="0px"
	 viewBox="0 0 275.63 116.24" style="enable-background:new 0 0 275.63 116.24;" xml:space="preserve">
<style type="text/css">
	.st0{fill:#D5D3CB;}
	.st1{fill:#222222;}
	.st2{fill:#DE2019;}
	.st3{fill:#515254;}
	.st4{fill:#F9A01B;}
	.st5{fill:#FED8A3;}
	.st6{fill:#006EB5;}
	.st7{fill:#0A4286;}
	.st8{fill:#C31D13;}
	.st9{fill:#A9ABAE;}
	.st10{fill:#020200;}
	.st11{fill:#FFB031;}
	.st12{fill:#363635;}
	.st13{fill:#4C4C49;}
	.st14{fill:#A8A7A1;}
	.st15{fill:#173F78;}
	.st16{fill:#E86408;}
	.st17{opacity:0.4;fill:#FFFFFF;}
	.st18{fill:#747F7A;}
	.st19{fill:#66706B;}
	.st20{fill:none;}
	.st21{fill:#00384B;}
	.st22{opacity:0.5;fill:#00384B;}
	.st23{fill:#FE231B;}
	.st24{fill:#720000;}
	.st25{fill:#B6B6B6;}
	.st26{fill:#85867D;}
	.st27{fill:#141412;}
</style>
<g>
	<g>
		<g>
			<path class="st0" d="M11.94,77.99l-0.42,0.71c0,0-6.07-7.12-2.48-13.54L11.94,77.99z"/>
			<path class="st1" d="M8.29,64.63c0,0,0.38,8.52,3.22,14.07l9.94,1.18V62.73L8.29,64.63z"/>
		</g>
		<path class="st2" d="M65.68,55.05l27.76-44.38c0,0,4.34-5.43,7.58-5.43h87.21c0,0,2.9-0.02,4.61,2.49l27.32,46.77L65.68,55.05z"/>
		<path class="st2" d="M268.93,52.49c-0.1-0.17-0.19-0.32-0.28-0.44c-0.8-1.04-2.08-1.18-3.68-1.69l-45.3-4.46L74.44,46.24
			c0,0-40.67-0.39-67.3,12.97c-2.12,1.86,16.01,35.35,16.24,35.44l180.07-0.17l57.39-8.98c0.65-2.18,1.29-4.36,1.93-6.53
			c1.45-4.92,2.92-9.84,4.34-14.77c0.43-1.48,0.86-2.97,1.28-4.46C269.1,57.21,270.35,55.02,268.93,52.49z"/>
		<path d="M85.4,55.03c0,0,130.73,2.4,131.46,0.02c0.31-0.99-22.17-39.27-22.17-39.27s-2.9-6.33-9.38-6.32L113.38,9.9
			c0,0-3.39-0.45-6.59,5.41L85.73,51.69C85.73,51.69,83.2,55.13,85.4,55.03z"/>
		<path class="st3" d="M186.47,12.02h-3.68c0,0-1.26,0.27-0.48,1.68l21.13,36.84c0,0,1.13,2.51,2,2.64h6.49c0,0,1.74-0.13,1.26-1.53
			c-0.48-1.41-20.13-36.15-20.13-36.15S191.4,12.81,186.47,12.02z"/>
		<g>
			<path class="st4" d="M20.48,68.35c0,0.63-0.51,1.13-1.13,1.13h-6.28c-0.62,0-1.13-0.51-1.13-1.13V67.3c0-0.63,0.5-1.14,1.13-1.14
				h6.28c0.63,0,1.13,0.51,1.13,1.14V68.35z"/>
			<path class="st5" d="M18.69,68.22c0,0.46-0.38,0.84-0.85,0.84h-4.68c-0.47,0-0.85-0.38-0.85-0.84v-0.79
				c0-0.46,0.38-0.84,0.85-0.84h4.68c0.47,0,0.85,0.38,0.85,0.84V68.22z"/>
		</g>
		<g>
			<path class="st6" d="M16.72,83.74c-0.08-0.14-0.16-0.28-0.25-0.43C16.55,83.46,16.64,83.6,16.72,83.74z"/>
			<path class="st6" d="M22.86,93.88c-0.94-1.46-3.04-4.86-5.41-8.89C19.83,89.01,21.92,92.42,22.86,93.88z"/>
			<path class="st6" d="M23.27,94.5c-0.01-0.01-0.02-0.03-0.03-0.04C23.25,94.47,23.26,94.49,23.27,94.5z"/>
			<path class="st6" d="M17.36,84.84c-0.16-0.27-0.32-0.55-0.49-0.83C17.04,84.28,17.2,84.56,17.36,84.84z"/>
			<path class="st6" d="M23.35,94.61c0,0-0.01-0.01-0.01-0.01C23.34,94.6,23.35,94.61,23.35,94.61z"/>
			<path class="st6" d="M23,94.1c-0.03-0.05-0.06-0.09-0.09-0.15C22.94,94.01,22.98,94.06,23,94.1z"/>
			<path class="st6" d="M23.17,94.35c-0.01-0.02-0.03-0.05-0.05-0.07C23.14,94.3,23.15,94.33,23.17,94.35z"/>
			<path class="st7" d="M23.24,94.46c-0.02-0.03-0.04-0.07-0.07-0.11C23.19,94.39,23.22,94.42,23.24,94.46z"/>
			<path class="st7" d="M261.98,83.23L261.98,83.23c-0.38,1.13-0.76,2.26-1.14,3.39C261.23,85.49,261.6,84.35,261.98,83.23z"/>
			<path class="st7" d="M23.33,94.6c-0.02-0.02-0.04-0.05-0.07-0.09C23.3,94.54,23.32,94.57,23.33,94.6z"/>
			<path class="st7" d="M23.38,94.65c0,0-0.01-0.02-0.03-0.04C23.36,94.63,23.37,94.65,23.38,94.65z"/>
			<path class="st7" d="M16.87,84.01c-0.05-0.09-0.1-0.18-0.16-0.27C16.77,83.83,16.82,83.92,16.87,84.01z"/>
			<path class="st7" d="M16.42,83.23c0.01,0.03,0.03,0.06,0.05,0.09C16.45,83.28,16.43,83.25,16.42,83.23L16.42,83.23z"/>
			<path class="st7" d="M17.45,84.99c-0.03-0.05-0.06-0.1-0.09-0.15C17.39,84.89,17.42,84.93,17.45,84.99z"/>
			<path class="st7" d="M23.12,94.28c-0.03-0.05-0.07-0.11-0.11-0.18C23.04,94.17,23.08,94.23,23.12,94.28z"/>
			<path class="st7" d="M22.91,93.96c-0.02-0.03-0.03-0.05-0.05-0.08C22.88,93.91,22.89,93.93,22.91,93.96z"/>
			<polygon class="st8" points="80.92,83.23 80.92,94.6 203.45,94.5 212.9,93.2 212.9,83.23 			"/>
			<path class="st6" d="M212.9,93.2l47.94-6.58c0.39-1.13,0.77-2.26,1.14-3.39H212.9V93.2z"/>
			<path class="st8" d="M212.9,93.2l47.94-6.58c0.39-1.13,0.77-2.26,1.14-3.39H212.9V93.2z"/>
			<path class="st8" d="M16.42,83.23c0.01,0.03,0.03,0.06,0.05,0.09c0.09,0.14,0.17,0.29,0.25,0.43c0.06,0.09,0.11,0.18,0.16,0.27
				c0.17,0.27,0.33,0.55,0.49,0.83c0.03,0.05,0.06,0.1,0.09,0.15c2.37,4.03,4.47,7.43,5.41,8.89c0.02,0.03,0.04,0.06,0.05,0.08
				c0.03,0.05,0.07,0.1,0.09,0.15c0.04,0.06,0.08,0.12,0.11,0.18c0.02,0.02,0.03,0.05,0.05,0.07c0.03,0.04,0.05,0.08,0.07,0.11
				c0.01,0.01,0.02,0.03,0.03,0.04c0.03,0.04,0.05,0.07,0.07,0.09c0,0,0.01,0.01,0.01,0.01c0.02,0.02,0.03,0.04,0.03,0.04
				l57.54-0.05V83.23H16.42z"/>
		</g>
		<g>
			<g>
				<path class="st9" d="M34.37,94.97c0,0,2.91-9.63,2.91-9.63c0.58-1.94,1.36-3.72,2.4-5.47c2.09-3.53,4.86-6.91,8.83-8.34
					c6.24-2.26,13.88-1.69,20.03,0.62c4.84,1.81,8.68,4.75,11.05,9.4c1.73,3.39,3.42,6.8,5.15,10.2c0.51,1.01,1.03,2.01,1.53,3.02
					L34.37,94.97z"/>
			</g>
			<path class="st10" d="M36.43,94.6c0,0,2.63-8.73,2.63-8.73c0.52-1.75,1.23-3.38,2.17-4.96c1.9-3.21,4.41-6.26,8-7.57
				c5.66-2.05,12.58-1.52,18.15,0.57c4.39,1.65,7.87,4.3,10.02,8.52c1.57,3.08,3.1,6.17,4.66,9.25c0.46,0.91,0.93,1.82,1.39,2.74
				L36.43,94.6z"/>
		</g>
		<g>
			<g>
				<path class="st11" d="M209.13,94.51l2.14,0.01c0.79-0.16,1.59-0.31,2.38-0.47C212.15,94.22,210.64,94.35,209.13,94.51z"/>
			</g>
			<g>
				<path class="st9" d="M228.86,91.11c-0.84-2.75-1.85-6.14-1.86-6.14c-0.58-1.94-1.36-3.72-2.39-5.47
					c-2.1-3.53-4.87-6.91-8.84-8.34c-6.24-2.26-13.5-1.31-19.65,1c-4.84,1.81-9.05,4.37-11.42,9.03c-1.73,3.39-3.42,6.8-5.15,10.2
					c-0.51,1-1.03,2.01-1.54,3.02l27.89,0.11C210.02,93.83,225.32,91.59,228.86,91.11z"/>
			</g>
			<path class="st10" d="M226.54,91.46c-0.76-2.5-1.69-5.59-1.69-5.6c-0.53-1.75-1.23-3.38-2.17-4.96c-1.9-3.21-4.41-6.26-8.01-7.57
				c-5.65-2.05-12.57-1.52-18.15,0.57c-4.39,1.65-7.87,4.3-10.02,8.52c-1.57,3.08-3.1,6.17-4.66,9.25
				c-0.46,0.91-0.93,1.82-1.39,2.74l25.41,0.1C209.98,93.83,223.79,91.93,226.54,91.46z"/>
			<path class="st10" d="M209.05,94.52l2.17,0.01c0.82-0.16,1.63-0.31,2.45-0.48C212.13,94.22,210.59,94.35,209.05,94.52z"/>
		</g>
		<g>
			<path class="st12" d="M77.12,91.91c0,9.8-7.94,17.73-17.73,17.73c-9.79,0-17.73-7.94-17.73-17.73c0-9.79,7.94-17.73,17.73-17.73
				C69.18,74.18,77.12,82.12,77.12,91.91z"/>
			<path class="st1" d="M77.12,91.91c0,9.8-7.94,17.73-17.73,17.73c-9.79,0-17.73-7.94-17.73-17.73c0-9.79,7.94-17.73,17.73-17.73
				C69.18,74.18,77.12,82.12,77.12,91.91z"/>
			<path d="M71.42,91.91c0,6.65-5.38,12.03-12.03,12.03c-6.65,0-12.03-5.39-12.03-12.03c0-6.65,5.38-12.03,12.03-12.03
				C66.03,79.88,71.42,85.26,71.42,91.91z"/>
			<path class="st0" d="M70.37,91.91c0,6.07-4.92,10.99-10.99,10.99c-6.07,0-10.98-4.92-10.98-10.99c0-6.07,4.91-10.99,10.98-10.99
				C65.45,80.92,70.37,85.84,70.37,91.91z"/>
			<g>
				<g>
					<path class="st13" d="M60.75,81.83c0,0-0.87-0.06-0.9,0.8v3.29c0,0-0.03,0.68,0.45,0.81c0,0,1.49,0.36,2.16,0.77
						c0,0,0.38,0.36,0.94-0.29l2.31-2.32c0,0,0.54-0.53,0.3-0.88C66.01,84.01,64.37,82.31,60.75,81.83z"/>
					<path class="st13" d="M58.01,81.83c0,0,0.87-0.06,0.9,0.8v3.29c0,0,0.03,0.68-0.45,0.81c0,0-1.48,0.36-2.16,0.77
						c0,0-0.38,0.36-0.93-0.29l-2.31-2.32c0,0-0.55-0.53-0.31-0.88C52.75,84.01,54.4,82.31,58.01,81.83z"/>
					<path class="st13" d="M69.63,90.31c0,0,0.12,0.87-0.75,0.95l-3.29,0.19c0,0-0.67,0.07-0.83-0.41c0,0-0.44-1.47-0.9-2.11
						c0,0-0.37-0.37,0.24-0.95l2.19-2.44c0,0,0.5-0.58,0.87-0.35C67.16,85.18,68.94,86.73,69.63,90.31z"/>
					<path class="st13" d="M49.14,90.31c0,0-0.12,0.87,0.75,0.95l3.29,0.19c0,0,0.67,0.07,0.83-0.41c0,0,0.43-1.47,0.89-2.11
						c0,0,0.37-0.37-0.24-0.95l-2.19-2.44c0,0-0.5-0.58-0.87-0.35C51.61,85.18,49.82,86.73,49.14,90.31z"/>
				</g>
				<g>
					<path class="st13" d="M60.75,101.99c0,0-0.87,0.06-0.9-0.81v-3.29c0,0-0.03-0.68,0.45-0.8c0,0,1.49-0.36,2.16-0.78
						c0,0,0.38-0.36,0.94,0.29l2.31,2.32c0,0,0.54,0.53,0.3,0.89C66.01,99.82,64.37,101.51,60.75,101.99z"/>
					<path class="st13" d="M58.01,101.99c0,0,0.87,0.06,0.9-0.81v-3.29c0,0,0.03-0.68-0.45-0.8c0,0-1.48-0.36-2.16-0.78
						c0,0-0.38-0.36-0.93,0.29l-2.31,2.32c0,0-0.55,0.53-0.31,0.89C52.75,99.82,54.4,101.51,58.01,101.99z"/>
					<path class="st13" d="M69.63,93.51c0,0,0.12-0.86-0.75-0.95l-3.29-0.18c0,0-0.67-0.07-0.83,0.41c0,0-0.44,1.46-0.9,2.12
						c0,0-0.37,0.36,0.24,0.95l2.19,2.43c0,0,0.5,0.58,0.87,0.36C67.16,98.64,68.94,97.1,69.63,93.51z"/>
					<path class="st13" d="M49.14,93.51c0,0-0.12-0.86,0.75-0.95l3.29-0.18c0,0,0.67-0.07,0.83,0.41c0,0,0.43,1.46,0.89,2.12
						c0,0,0.37,0.36-0.24,0.95l-2.19,2.43c0,0-0.5,0.58-0.87,0.36C51.61,98.64,49.82,97.1,49.14,93.51z"/>
				</g>
			</g>
			<path class="st14" d="M56.24,90.51c0,0.25-0.2,0.44-0.45,0.44c-0.24,0-0.44-0.19-0.44-0.44c0-0.24,0.2-0.44,0.44-0.44
				C56.05,90.08,56.24,90.27,56.24,90.51z"/>
			<path class="st14" d="M58.1,88.39c0,0.24-0.2,0.44-0.44,0.44c-0.24,0-0.44-0.2-0.44-0.44c0-0.24,0.2-0.44,0.44-0.44
				C57.91,87.95,58.1,88.14,58.1,88.39z"/>
			<path class="st14" d="M61.49,88.28c0,0.25-0.2,0.44-0.44,0.44c-0.25,0-0.45-0.2-0.45-0.44c0-0.24,0.2-0.44,0.45-0.44
				C61.3,87.84,61.49,88.04,61.49,88.28z"/>
			<path class="st14" d="M63.4,90.51c0,0.25-0.2,0.44-0.45,0.44c-0.24,0-0.44-0.19-0.44-0.44c0-0.24,0.2-0.44,0.44-0.44
				C63.21,90.08,63.4,90.27,63.4,90.51z"/>
			<path class="st14" d="M56.24,93.38c0-0.24-0.2-0.44-0.45-0.44c-0.24,0-0.44,0.19-0.44,0.44c0,0.25,0.2,0.44,0.44,0.44
				C56.05,93.82,56.24,93.62,56.24,93.38z"/>
			<path class="st14" d="M58.1,95.51c0-0.24-0.2-0.44-0.44-0.44c-0.24,0-0.44,0.2-0.44,0.44c0,0.25,0.2,0.44,0.44,0.44
				C57.91,95.95,58.1,95.76,58.1,95.51z"/>
			<path class="st14" d="M61.49,95.61c0-0.25-0.2-0.44-0.44-0.44c-0.25,0-0.45,0.2-0.45,0.44s0.2,0.44,0.45,0.44
				C61.3,96.05,61.49,95.86,61.49,95.61z"/>
			<path class="st14" d="M63.4,93.38c0-0.24-0.2-0.44-0.45-0.44c-0.24,0-0.44,0.19-0.44,0.44c0,0.25,0.2,0.44,0.44,0.44
				C63.21,93.82,63.4,93.62,63.4,93.38z"/>
		</g>
		<g>
			<path class="st12" d="M221.66,91.91c0,9.8-7.94,17.73-17.73,17.73c-9.79,0-17.73-7.94-17.73-17.73c0-9.79,7.94-17.73,17.73-17.73
				C213.72,74.18,221.66,82.12,221.66,91.91z"/>
			<path class="st1" d="M221.66,91.91c0,9.8-7.94,17.73-17.73,17.73c-9.79,0-17.73-7.94-17.73-17.73c0-9.79,7.94-17.73,17.73-17.73
				C213.72,74.18,221.66,82.12,221.66,91.91z"/>
			<path d="M215.95,91.91c0,6.65-5.39,12.03-12.03,12.03c-6.65,0-12.03-5.39-12.03-12.03c0-6.65,5.38-12.03,12.03-12.03
				C210.57,79.88,215.95,85.26,215.95,91.91z"/>
			<path class="st0" d="M214.91,91.91c0,6.07-4.92,10.99-10.99,10.99c-6.06,0-10.98-4.92-10.98-10.99c0-6.07,4.92-10.99,10.98-10.99
				C209.99,80.92,214.91,85.84,214.91,91.91z"/>
			<g>
				<g>
					<path class="st13" d="M205.29,81.83c0,0-0.87-0.06-0.9,0.8v3.29c0,0-0.03,0.68,0.45,0.81c0,0,1.49,0.36,2.16,0.77
						c0,0,0.39,0.36,0.94-0.29l2.31-2.32c0,0,0.55-0.53,0.31-0.88C210.55,84.01,208.91,82.31,205.29,81.83z"/>
					<path class="st13" d="M202.55,81.83c0,0,0.87-0.06,0.9,0.8v3.29c0,0,0.04,0.68-0.45,0.81c0,0-1.48,0.36-2.16,0.77
						c0,0-0.39,0.36-0.93-0.29l-2.31-2.32c0,0-0.55-0.53-0.3-0.88C197.29,84.01,198.93,82.31,202.55,81.83z"/>
					<path class="st13" d="M214.17,90.31c0,0,0.11,0.87-0.76,0.95l-3.29,0.19c0,0-0.68,0.07-0.83-0.41c0,0-0.44-1.47-0.89-2.11
						c0,0-0.38-0.37,0.24-0.95l2.19-2.44c0,0,0.51-0.58,0.87-0.35C211.7,85.18,213.48,86.73,214.17,90.31z"/>
					<path class="st13" d="M193.68,90.31c0,0-0.11,0.87,0.75,0.95l3.29,0.19c0,0,0.68,0.07,0.83-0.41c0,0,0.43-1.47,0.89-2.11
						c0,0,0.38-0.37-0.24-0.95l-2.19-2.44c0,0-0.5-0.58-0.87-0.35C196.15,85.18,194.36,86.73,193.68,90.31z"/>
				</g>
				<g>
					<path class="st13" d="M205.29,101.99c0,0-0.87,0.06-0.9-0.81v-3.29c0,0-0.03-0.68,0.45-0.8c0,0,1.49-0.36,2.16-0.78
						c0,0,0.39-0.36,0.94,0.29l2.31,2.32c0,0,0.55,0.53,0.31,0.89C210.55,99.82,208.91,101.51,205.29,101.99z"/>
					<path class="st13" d="M202.55,101.99c0,0,0.87,0.06,0.9-0.81v-3.29c0,0,0.04-0.68-0.45-0.8c0,0-1.48-0.36-2.16-0.78
						c0,0-0.39-0.36-0.93,0.29l-2.31,2.32c0,0-0.55,0.53-0.3,0.89C197.29,99.82,198.93,101.51,202.55,101.99z"/>
					<path class="st13" d="M214.17,93.51c0,0,0.11-0.86-0.76-0.95l-3.29-0.18c0,0-0.68-0.07-0.83,0.41c0,0-0.44,1.46-0.89,2.12
						c0,0-0.38,0.36,0.24,0.95l2.19,2.43c0,0,0.51,0.58,0.87,0.36C211.7,98.64,213.48,97.1,214.17,93.51z"/>
					<path class="st13" d="M193.68,93.51c0,0-0.11-0.86,0.75-0.95l3.29-0.18c0,0,0.68-0.07,0.83,0.41c0,0,0.43,1.46,0.89,2.12
						c0,0,0.38,0.36-0.24,0.95l-2.19,2.43c0,0-0.5,0.58-0.87,0.36C196.15,98.64,194.36,97.1,193.68,93.51z"/>
				</g>
			</g>
			<path class="st14" d="M200.78,90.51c0,0.25-0.2,0.44-0.44,0.44c-0.25,0-0.44-0.19-0.44-0.44c0-0.24,0.2-0.44,0.44-0.44
				C200.58,90.08,200.78,90.27,200.78,90.51z"/>
			<path class="st14" d="M202.64,88.39c0,0.24-0.2,0.44-0.44,0.44c-0.24,0-0.44-0.2-0.44-0.44c0-0.24,0.2-0.44,0.44-0.44
				C202.45,87.95,202.64,88.14,202.64,88.39z"/>
			<path class="st14" d="M206.03,88.28c0,0.25-0.2,0.44-0.44,0.44c-0.25,0-0.44-0.2-0.44-0.44c0-0.24,0.2-0.44,0.44-0.44
				C205.83,87.84,206.03,88.04,206.03,88.28z"/>
			<path class="st14" d="M207.94,90.51c0,0.25-0.2,0.44-0.44,0.44c-0.24,0-0.44-0.19-0.44-0.44c0-0.24,0.2-0.44,0.44-0.44
				C207.75,90.08,207.94,90.27,207.94,90.51z"/>
			<path class="st14" d="M200.78,93.38c0-0.24-0.2-0.44-0.44-0.44c-0.25,0-0.44,0.19-0.44,0.44c0,0.25,0.2,0.44,0.44,0.44
				C200.58,93.82,200.78,93.62,200.78,93.38z"/>
			<path class="st14" d="M202.64,95.51c0-0.24-0.2-0.44-0.44-0.44c-0.24,0-0.44,0.2-0.44,0.44c0,0.25,0.2,0.44,0.44,0.44
				C202.45,95.95,202.64,95.76,202.64,95.51z"/>
			<path class="st14" d="M206.03,95.61c0-0.25-0.2-0.44-0.44-0.44c-0.25,0-0.44,0.2-0.44,0.44s0.2,0.44,0.44,0.44
				C205.83,96.05,206.03,95.86,206.03,95.61z"/>
			<path class="st14" d="M207.94,93.38c0-0.24-0.2-0.44-0.44-0.44c-0.24,0-0.44,0.19-0.44,0.44c0,0.25,0.2,0.44,0.44,0.44
				C207.75,93.82,207.94,93.62,207.94,93.38z"/>
		</g>
		<g>
			<path class="st15" d="M269.99,60.22l-1.39-0.76c0,0-0.13-0.1-0.3,0.23l-4.47,11.87c0,0-0.04,0.17,0.35,0c0,0,1.71-0.68,2.23-1.07
				c0.29-0.22,0.66-0.74,0.66-0.74s3.06-8.31,3.21-8.71C270.44,60.62,269.99,60.22,269.99,60.22z"/>
			<g>
				<path class="st0" d="M270.29,60.38l-1.35-0.73c0,0-0.13-0.1-0.29,0.22l-4.36,11.3c0,0-0.04,0.16,0.34,0c0,0,1.67-0.65,2.17-1.01
					c0.29-0.21,0.65-0.71,0.65-0.71s2.99-7.91,3.13-8.29C270.73,60.76,270.29,60.38,270.29,60.38z"/>
				<path class="st16" d="M268.6,66.4c0.86-2.27,1.9-5.03,1.99-5.25c0.14-0.39-0.29-0.77-0.29-0.77l-1.35-0.73
					c0,0-0.13-0.1-0.29,0.22l-2.52,6.53H268.6z"/>
				<path class="st17" d="M269.55,59.98l-0.62-0.33c0,0-0.13-0.1-0.29,0.22l-4.36,11.3c0,0-0.04,0.16,0.34,0c0,0,0.3-0.12,0.69-0.28
					C266.62,67.21,268.2,63.63,269.55,59.98z"/>
			</g>
		</g>
		<g>
			<path class="st18" d="M264.35,79.24h-28.2c0,0-1.47-0.06-1.47,2.1l2.71,5.36c0,0,0.78,1.42,2.71,1.15l22.39-2.39
				c0,0,0.64,0.1,1.04-0.44c0.39-0.54,1.54-4.66,1.54-4.66S265.37,79.24,264.35,79.24z"/>
			<g>
				<path class="st19" d="M265.06,80.36c0,0,0.3-1.12-0.71-1.12h-28.2c0,0-1.47-0.06-1.47,2.1l1.36,2.69l28.44-1.67
					C264.8,81.31,265.06,80.36,265.06,80.36z"/>
			</g>
		</g>
		<g>
			<path class="st20" d="M75.62,55.01c0.1,0.01,0.2,0.02,0.29,0.03c0,0,0.34,0.06,0.86-0.04L75.62,55.01z"/>
			<path class="st21" d="M79.5,53.14c1.75-2.26,23.65-39.6,23.65-39.6s2.06-2.72,0-3.41c0,0-3.81-0.14-7.81-1.54
				c-1.13,1.12-1.91,2.08-1.91,2.08L68.06,51.25c0,0,3.34,3.21,7.56,3.77l1.16-0.01C77.48,54.87,78.51,54.43,79.5,53.14z"/>
		</g>
		<path class="st21" d="M116.58,12.18c0,0-4.75-0.9-6.97,1.66L87.73,51.27c0,0-1.16,1.66,0,1.92h54.6l0.63-41.15L116.58,12.18z"/>
		<path class="st21" d="M173.28,12.18c0,0,4.75-0.9,6.97,1.66l21.88,37.43c0,0,1.16,1.66,0,1.92h-54.96l-1.47-41.16L173.28,12.18z"
			/>
		<path class="st22" d="M86.42,41.85c7.01-11.74,16.74-28.32,16.74-28.32s2.06-2.72,0-3.41c0,0-3.81-0.14-7.81-1.54
			c-1.13,1.12-1.91,2.08-1.91,2.08l-23.71,37.9C75.23,46.08,80.8,43.84,86.42,41.85z"/>
		<path class="st22" d="M109.38,35.04c11.02-2.66,22.15-4.55,33.31-5.76l0.26-17.25l-26.37,0.15c0,0-4.75-0.9-6.97,1.66l-14.73,25.2
			C99.68,37.54,104.52,36.21,109.38,35.04z"/>
		<path class="st22" d="M176.36,27.59c4.03,0.02,8.07,0.12,12.1,0.28l-8.21-14.04c-2.22-2.56-6.97-1.66-6.97-1.66l-27.59-0.15
			l0.6,16.9C156.3,27.97,166.33,27.55,176.36,27.59z"/>
		<g>
			<path class="st23" d="M259.73,58.56H76.78l-52.7,6.6h234.15c0,0,3.19,0.25,3.75-1.29c0.57-1.55,1.34-3.95,1.34-3.95
				S263.75,58.56,259.73,58.56z"/>
		</g>
		<g>
			<path class="st24" d="M127.8,58.44h15.01c0,0,0.79-0.11,0.86,0.34c0.06,0.44-1.15,2-1.15,2s-0.26,0.52-1.34,0.67h-11.92
				c0,0-0.64,0.22-1.47-0.74C126.98,59.73,125.96,58.44,127.8,58.44z"/>
			<path class="st25" d="M128.21,58.56h13.42c0,0,0.71-0.08,0.77,0.25c0.05,0.32-1.03,1.44-1.03,1.44s-0.23,0.37-1.2,0.48h-10.65
				c0,0-0.57,0.16-1.31-0.54C127.47,59.5,126.57,58.56,128.21,58.56z"/>
		</g>
		<g>
			<path class="st24" d="M189.81,58.44h15.01c0,0,0.79-0.11,0.86,0.34c0.06,0.44-1.15,2-1.15,2s-0.25,0.52-1.34,0.67h-11.92
				c0,0-0.63,0.22-1.46-0.74C188.98,59.73,187.96,58.44,189.81,58.44z"/>
			<path class="st25" d="M190.22,58.56h13.42c0,0,0.71-0.08,0.77,0.25c0.06,0.32-1.03,1.44-1.03,1.44s-0.23,0.37-1.2,0.48h-10.65
				c0,0-0.57,0.16-1.31-0.54C189.48,59.5,188.57,58.56,190.22,58.56z"/>
		</g>
		<path class="st26" d="M146.53,57v25.89c0,0-0.41,9.36-1.93,11.01c0,0,0.55-8.12,0.41-14.32c-0.14-6.19,0-22.58,0-22.58H146.53z"/>
		<g>
			<path class="st18" d="M15.64,87.61h16.29c0,0,2.3,0,2.08,1.12l-1.95,7.32c0,0-0.33,1.4-2.32,1.33c0,0-8.33,0.55-9.8-0.61
				c-1.46-1.16-5.26-6.7-5.26-6.7S13,87.61,15.64,87.61z"/>
			<path class="st19" d="M15.4,91.12h17.96L34,88.73c0.23-1.12-2.08-1.12-2.08-1.12H15.64c-2.63,0-0.96,2.47-0.96,2.47
				S14.96,90.49,15.4,91.12z"/>
		</g>
	</g>
	<g>
		<path d="M81.62,50.61l-5.92,3.93c0,0-2.69,1.9-0.73,3.94c0,0,0.92,1.07,3.4,1.13c2.49,0.05,7.63-1.13,7.63-1.13L81.62,50.61z"/>
		<g>
			<path class="st1" d="M91.98,49.04c-1.2-3.35-7.3-2.88-7.32-2.88c-2.62,0.19-4.59,2.84-6.08,5.65c-1.71,3.24-0.44,9.86,2.78,9.25
				c3.68-0.71,2.27-0.18,8.24-1.93C91.16,58.67,93.44,53.11,91.98,49.04z"/>
		</g>
		<g>
			<path class="st27" d="M91.98,49.04c-0.11-0.31-0.26-0.59-0.45-0.83c0.06,1.57-0.29,3.13-1.37,4.35
				c-1.36,1.52-3.33,2.31-5.25,2.84c-1.16,0.32-2.29,0.73-3.47,0.96c-0.94,0.19-2.22,0.44-3.09-0.1c-0.19-0.13-0.37-0.27-0.5-0.42
				c0.13,2.85,1.4,5.61,3.53,5.2c3.68-0.71,2.27-0.18,8.24-1.93C91.16,58.67,93.44,53.11,91.98,49.04z"/>
		</g>
	</g>
</g>
</svg>
